<svg width="800" height="800" viewBox="0 0 800 800" fill="none" xmlns="http://www.w3.org/2000/svg">
<rect width="800" height="800" fill="#262626"/>
<path d="M106 400H694" stroke="#FF3737" stroke-width="50" stroke-linecap="square" stroke-linejoin="round"/>
<path d="M187 535V540H192H249.021H254.021V535V444.287H287.644L337.317 537.354L338.729 540H341.728H404.675H413.098L409.064 532.605L354.39 432.381C368.728 425.197 379.906 415.091 387.757 402.052L387.761 402.045L387.765 402.039C396.036 388.207 400.062 371.858 400.062 353.198C400.062 334.635 396.084 318.233 387.941 304.17C379.872 289.996 368.1 279.092 352.795 271.474C337.541 263.749 319.348 260 298.403 260H192H187V265V535ZM287.737 388.408H254.021V316.67H287.473C297.996 316.67 306.322 318.235 312.674 321.105L312.707 321.12L312.741 321.134C319.163 323.923 323.676 327.9 326.588 333.001L326.601 333.024L326.614 333.047C329.664 338.26 331.329 344.895 331.329 353.198C331.329 361.41 329.666 367.887 326.647 372.899L326.633 372.922L326.619 372.946C323.726 377.87 319.274 381.682 312.947 384.308C306.546 386.965 298.208 388.408 287.737 388.408ZM430.358 535V540H435.358H608H613V535V487.935V482.935H608H497.379V265V260H492.379H435.358H430.358V265V535Z" fill="white" stroke="#262626" stroke-width="10"/>
</svg>
