<svg width="800" height="800" viewBox="0 0 800 800" fill="none" xmlns="http://www.w3.org/2000/svg">
<rect width="800" height="800" fill="#262626"/>
<path d="M77 505.5L217 339.5L271.5 505.5L491 310V466L640.5 370V428L711.5 300" stroke="#FF3737" stroke-width="15"/>
<mask id="path-2-outside-1_1_36" maskUnits="userSpaceOnUse" x="102" y="354" width="584" height="136" fill="black">
<rect fill="white" x="102" y="354" width="584" height="136"/>
<path d="M107 483.278V365.716H153.392C162.273 365.716 169.852 367.304 176.129 370.481C182.445 373.619 187.249 378.077 190.541 383.856C193.871 389.596 195.536 396.35 195.536 404.119C195.536 411.926 193.852 418.642 190.483 424.267C187.115 429.855 182.234 434.141 175.842 437.126C169.488 440.111 161.794 441.603 152.761 441.603H121.699V421.627H148.742C153.488 421.627 157.431 420.976 160.569 419.675C163.708 418.374 166.043 416.422 167.574 413.82C169.144 411.218 169.928 407.984 169.928 404.119C169.928 400.215 169.144 396.924 167.574 394.246C166.043 391.567 163.689 389.538 160.512 388.161C157.373 386.745 153.411 386.037 148.627 386.037H131.861V483.278H107ZM170.502 429.778L199.727 483.278H172.282L143.689 429.778H170.502Z"/>
<path d="M251.416 485C242.344 485 234.536 483.163 227.99 479.489C221.483 475.777 216.469 470.534 212.947 463.761C209.426 456.949 207.665 448.893 207.665 439.594C207.665 430.524 209.426 422.564 212.947 415.714C216.469 408.864 221.426 403.526 227.818 399.699C234.249 395.872 241.789 393.959 250.44 393.959C256.258 393.959 261.675 394.896 266.689 396.771C271.742 398.608 276.144 401.383 279.895 405.095C283.684 408.807 286.632 413.476 288.737 419.101C290.842 424.688 291.895 431.232 291.895 438.733V445.449H217.426V430.295H268.871C268.871 426.774 268.105 423.655 266.574 420.938C265.043 418.221 262.919 416.097 260.201 414.566C257.522 412.997 254.402 412.213 250.842 412.213C247.129 412.213 243.837 413.074 240.967 414.796C238.134 416.48 235.914 418.757 234.306 421.627C232.699 424.459 231.876 427.616 231.837 431.098V445.507C231.837 449.869 232.641 453.639 234.249 456.815C235.895 459.991 238.211 462.441 241.196 464.163C244.182 465.885 247.722 466.746 251.818 466.746C254.536 466.746 257.024 466.363 259.282 465.598C261.541 464.832 263.474 463.684 265.081 462.154C266.689 460.623 267.914 458.748 268.756 456.528L291.378 458.021C290.23 463.455 287.876 468.2 284.316 472.256C280.794 476.275 276.239 479.413 270.651 481.671C265.1 483.89 258.689 485 251.416 485Z"/>
<path d="M340.354 484.713C333.656 484.713 327.589 482.991 322.153 479.547C316.756 476.064 312.469 470.955 309.292 464.22C306.153 457.446 304.584 449.142 304.584 439.307C304.584 429.204 306.211 420.804 309.464 414.107C312.718 407.372 317.043 402.339 322.44 399.01C327.876 395.642 333.828 393.959 340.297 393.959C345.234 393.959 349.349 394.8 352.641 396.484C355.971 398.13 358.651 400.196 360.679 402.684C362.746 405.133 364.316 407.544 365.388 409.917H366.134V365.716H390.536V483.278H366.421V469.157H365.388C364.239 471.606 362.612 474.036 360.507 476.447C358.44 478.82 355.742 480.79 352.411 482.359C349.12 483.928 345.1 484.713 340.354 484.713ZM348.105 465.253C352.048 465.253 355.378 464.182 358.096 462.039C360.852 459.857 362.957 456.815 364.411 452.912C365.904 449.008 366.651 444.435 366.651 439.192C366.651 433.949 365.923 429.395 364.469 425.53C363.014 421.665 360.909 418.68 358.153 416.575C355.397 414.471 352.048 413.418 348.105 413.418C344.086 413.418 340.699 414.509 337.943 416.69C335.187 418.872 333.1 421.895 331.684 425.76C330.268 429.625 329.56 434.103 329.56 439.192C329.56 444.32 330.268 448.855 331.684 452.797C333.139 456.7 335.225 459.762 337.943 461.981C340.699 464.163 344.086 465.253 348.105 465.253Z"/>
<path d="M435.105 365.716V483.278H410.646V365.716H435.105Z"/>
<path d="M454.699 483.278V395.107H479.158V483.278H454.699ZM466.986 383.741C463.349 383.741 460.23 382.535 457.627 380.124C455.062 377.675 453.78 374.748 453.78 371.342C453.78 367.974 455.062 365.085 457.627 362.674C460.23 360.225 463.349 359 466.986 359C470.622 359 473.723 360.225 476.287 362.674C478.89 365.085 480.191 367.974 480.191 371.342C480.191 374.748 478.89 377.675 476.287 380.124C473.723 382.535 470.622 383.741 466.986 383.741Z"/>
<path d="M523.211 432.304V483.278H498.751V395.107H522.062V410.663H523.096C525.048 405.535 528.321 401.478 532.914 398.493C537.507 395.47 543.077 393.959 549.622 393.959C555.746 393.959 561.086 395.298 565.641 397.977C570.196 400.656 573.737 404.482 576.263 409.457C578.789 414.394 580.053 420.287 580.053 427.138V483.278H555.593V431.5C555.632 426.104 554.254 421.895 551.459 418.872C548.665 415.81 544.818 414.279 539.919 414.279C536.627 414.279 533.718 414.987 531.191 416.403C528.703 417.819 526.751 419.886 525.335 422.603C523.957 425.282 523.249 428.515 523.211 432.304Z"/>
<path d="M639.522 485C630.45 485 622.641 483.163 616.096 479.489C609.589 475.777 604.574 470.534 601.053 463.761C597.531 456.949 595.77 448.893 595.77 439.594C595.77 430.524 597.531 422.564 601.053 415.714C604.574 408.864 609.531 403.526 615.923 399.699C622.354 395.872 629.895 393.959 638.545 393.959C644.364 393.959 649.78 394.896 654.794 396.771C659.847 398.608 664.249 401.383 668 405.095C671.789 408.807 674.737 413.476 676.842 419.101C678.947 424.688 680 431.232 680 438.733V445.449H605.531V430.295H656.976C656.976 426.774 656.211 423.655 654.679 420.938C653.148 418.221 651.024 416.097 648.306 414.566C645.627 412.997 642.507 412.213 638.947 412.213C635.234 412.213 631.943 413.074 629.072 414.796C626.239 416.48 624.019 418.757 622.411 421.627C620.804 424.459 619.981 427.616 619.943 431.098V445.507C619.943 449.869 620.746 453.639 622.354 456.815C624 459.991 626.316 462.441 629.301 464.163C632.287 465.885 635.828 466.746 639.923 466.746C642.641 466.746 645.129 466.363 647.388 465.598C649.646 464.832 651.579 463.684 653.187 462.154C654.794 460.623 656.019 458.748 656.861 456.528L679.483 458.021C678.335 463.455 675.981 468.2 672.421 472.256C668.9 476.275 664.344 479.413 658.756 481.671C653.206 483.89 646.794 485 639.522 485Z"/>
</mask>
<path d="M107 483.278V365.716H153.392C162.273 365.716 169.852 367.304 176.129 370.481C182.445 373.619 187.249 378.077 190.541 383.856C193.871 389.596 195.536 396.35 195.536 404.119C195.536 411.926 193.852 418.642 190.483 424.267C187.115 429.855 182.234 434.141 175.842 437.126C169.488 440.111 161.794 441.603 152.761 441.603H121.699V421.627H148.742C153.488 421.627 157.431 420.976 160.569 419.675C163.708 418.374 166.043 416.422 167.574 413.82C169.144 411.218 169.928 407.984 169.928 404.119C169.928 400.215 169.144 396.924 167.574 394.246C166.043 391.567 163.689 389.538 160.512 388.161C157.373 386.745 153.411 386.037 148.627 386.037H131.861V483.278H107ZM170.502 429.778L199.727 483.278H172.282L143.689 429.778H170.502Z" fill="white"/>
<path d="M251.416 485C242.344 485 234.536 483.163 227.99 479.489C221.483 475.777 216.469 470.534 212.947 463.761C209.426 456.949 207.665 448.893 207.665 439.594C207.665 430.524 209.426 422.564 212.947 415.714C216.469 408.864 221.426 403.526 227.818 399.699C234.249 395.872 241.789 393.959 250.44 393.959C256.258 393.959 261.675 394.896 266.689 396.771C271.742 398.608 276.144 401.383 279.895 405.095C283.684 408.807 286.632 413.476 288.737 419.101C290.842 424.688 291.895 431.232 291.895 438.733V445.449H217.426V430.295H268.871C268.871 426.774 268.105 423.655 266.574 420.938C265.043 418.221 262.919 416.097 260.201 414.566C257.522 412.997 254.402 412.213 250.842 412.213C247.129 412.213 243.837 413.074 240.967 414.796C238.134 416.48 235.914 418.757 234.306 421.627C232.699 424.459 231.876 427.616 231.837 431.098V445.507C231.837 449.869 232.641 453.639 234.249 456.815C235.895 459.991 238.211 462.441 241.196 464.163C244.182 465.885 247.722 466.746 251.818 466.746C254.536 466.746 257.024 466.363 259.282 465.598C261.541 464.832 263.474 463.684 265.081 462.154C266.689 460.623 267.914 458.748 268.756 456.528L291.378 458.021C290.23 463.455 287.876 468.2 284.316 472.256C280.794 476.275 276.239 479.413 270.651 481.671C265.1 483.89 258.689 485 251.416 485Z" fill="white"/>
<path d="M340.354 484.713C333.656 484.713 327.589 482.991 322.153 479.547C316.756 476.064 312.469 470.955 309.292 464.22C306.153 457.446 304.584 449.142 304.584 439.307C304.584 429.204 306.211 420.804 309.464 414.107C312.718 407.372 317.043 402.339 322.44 399.01C327.876 395.642 333.828 393.959 340.297 393.959C345.234 393.959 349.349 394.8 352.641 396.484C355.971 398.13 358.651 400.196 360.679 402.684C362.746 405.133 364.316 407.544 365.388 409.917H366.134V365.716H390.536V483.278H366.421V469.157H365.388C364.239 471.606 362.612 474.036 360.507 476.447C358.44 478.82 355.742 480.79 352.411 482.359C349.12 483.928 345.1 484.713 340.354 484.713ZM348.105 465.253C352.048 465.253 355.378 464.182 358.096 462.039C360.852 459.857 362.957 456.815 364.411 452.912C365.904 449.008 366.651 444.435 366.651 439.192C366.651 433.949 365.923 429.395 364.469 425.53C363.014 421.665 360.909 418.68 358.153 416.575C355.397 414.471 352.048 413.418 348.105 413.418C344.086 413.418 340.699 414.509 337.943 416.69C335.187 418.872 333.1 421.895 331.684 425.76C330.268 429.625 329.56 434.103 329.56 439.192C329.56 444.32 330.268 448.855 331.684 452.797C333.139 456.7 335.225 459.762 337.943 461.981C340.699 464.163 344.086 465.253 348.105 465.253Z" fill="white"/>
<path d="M435.105 365.716V483.278H410.646V365.716H435.105Z" fill="white"/>
<path d="M454.699 483.278V395.107H479.158V483.278H454.699ZM466.986 383.741C463.349 383.741 460.23 382.535 457.627 380.124C455.062 377.675 453.78 374.748 453.78 371.342C453.78 367.974 455.062 365.085 457.627 362.674C460.23 360.225 463.349 359 466.986 359C470.622 359 473.723 360.225 476.287 362.674C478.89 365.085 480.191 367.974 480.191 371.342C480.191 374.748 478.89 377.675 476.287 380.124C473.723 382.535 470.622 383.741 466.986 383.741Z" fill="white"/>
<path d="M523.211 432.304V483.278H498.751V395.107H522.062V410.663H523.096C525.048 405.535 528.321 401.478 532.914 398.493C537.507 395.47 543.077 393.959 549.622 393.959C555.746 393.959 561.086 395.298 565.641 397.977C570.196 400.656 573.737 404.482 576.263 409.457C578.789 414.394 580.053 420.287 580.053 427.138V483.278H555.593V431.5C555.632 426.104 554.254 421.895 551.459 418.872C548.665 415.81 544.818 414.279 539.919 414.279C536.627 414.279 533.718 414.987 531.191 416.403C528.703 417.819 526.751 419.886 525.335 422.603C523.957 425.282 523.249 428.515 523.211 432.304Z" fill="white"/>
<path d="M639.522 485C630.45 485 622.641 483.163 616.096 479.489C609.589 475.777 604.574 470.534 601.053 463.761C597.531 456.949 595.77 448.893 595.77 439.594C595.77 430.524 597.531 422.564 601.053 415.714C604.574 408.864 609.531 403.526 615.923 399.699C622.354 395.872 629.895 393.959 638.545 393.959C644.364 393.959 649.78 394.896 654.794 396.771C659.847 398.608 664.249 401.383 668 405.095C671.789 408.807 674.737 413.476 676.842 419.101C678.947 424.688 680 431.232 680 438.733V445.449H605.531V430.295H656.976C656.976 426.774 656.211 423.655 654.679 420.938C653.148 418.221 651.024 416.097 648.306 414.566C645.627 412.997 642.507 412.213 638.947 412.213C635.234 412.213 631.943 413.074 629.072 414.796C626.239 416.48 624.019 418.757 622.411 421.627C620.804 424.459 619.981 427.616 619.943 431.098V445.507C619.943 449.869 620.746 453.639 622.354 456.815C624 459.991 626.316 462.441 629.301 464.163C632.287 465.885 635.828 466.746 639.923 466.746C642.641 466.746 645.129 466.363 647.388 465.598C649.646 464.832 651.579 463.684 653.187 462.154C654.794 460.623 656.019 458.748 656.861 456.528L679.483 458.021C678.335 463.455 675.981 468.2 672.421 472.256C668.9 476.275 664.344 479.413 658.756 481.671C653.206 483.89 646.794 485 639.522 485Z" fill="white"/>
<path d="M107 483.278V365.716H153.392C162.273 365.716 169.852 367.304 176.129 370.481C182.445 373.619 187.249 378.077 190.541 383.856C193.871 389.596 195.536 396.35 195.536 404.119C195.536 411.926 193.852 418.642 190.483 424.267C187.115 429.855 182.234 434.141 175.842 437.126C169.488 440.111 161.794 441.603 152.761 441.603H121.699V421.627H148.742C153.488 421.627 157.431 420.976 160.569 419.675C163.708 418.374 166.043 416.422 167.574 413.82C169.144 411.218 169.928 407.984 169.928 404.119C169.928 400.215 169.144 396.924 167.574 394.246C166.043 391.567 163.689 389.538 160.512 388.161C157.373 386.745 153.411 386.037 148.627 386.037H131.861V483.278H107ZM170.502 429.778L199.727 483.278H172.282L143.689 429.778H170.502Z" stroke="#262626" stroke-width="10" mask="url(#path-2-outside-1_1_36)"/>
<path d="M251.416 485C242.344 485 234.536 483.163 227.99 479.489C221.483 475.777 216.469 470.534 212.947 463.761C209.426 456.949 207.665 448.893 207.665 439.594C207.665 430.524 209.426 422.564 212.947 415.714C216.469 408.864 221.426 403.526 227.818 399.699C234.249 395.872 241.789 393.959 250.44 393.959C256.258 393.959 261.675 394.896 266.689 396.771C271.742 398.608 276.144 401.383 279.895 405.095C283.684 408.807 286.632 413.476 288.737 419.101C290.842 424.688 291.895 431.232 291.895 438.733V445.449H217.426V430.295H268.871C268.871 426.774 268.105 423.655 266.574 420.938C265.043 418.221 262.919 416.097 260.201 414.566C257.522 412.997 254.402 412.213 250.842 412.213C247.129 412.213 243.837 413.074 240.967 414.796C238.134 416.48 235.914 418.757 234.306 421.627C232.699 424.459 231.876 427.616 231.837 431.098V445.507C231.837 449.869 232.641 453.639 234.249 456.815C235.895 459.991 238.211 462.441 241.196 464.163C244.182 465.885 247.722 466.746 251.818 466.746C254.536 466.746 257.024 466.363 259.282 465.598C261.541 464.832 263.474 463.684 265.081 462.154C266.689 460.623 267.914 458.748 268.756 456.528L291.378 458.021C290.23 463.455 287.876 468.2 284.316 472.256C280.794 476.275 276.239 479.413 270.651 481.671C265.1 483.89 258.689 485 251.416 485Z" stroke="#262626" stroke-width="10" mask="url(#path-2-outside-1_1_36)"/>
<path d="M340.354 484.713C333.656 484.713 327.589 482.991 322.153 479.547C316.756 476.064 312.469 470.955 309.292 464.22C306.153 457.446 304.584 449.142 304.584 439.307C304.584 429.204 306.211 420.804 309.464 414.107C312.718 407.372 317.043 402.339 322.44 399.01C327.876 395.642 333.828 393.959 340.297 393.959C345.234 393.959 349.349 394.8 352.641 396.484C355.971 398.13 358.651 400.196 360.679 402.684C362.746 405.133 364.316 407.544 365.388 409.917H366.134V365.716H390.536V483.278H366.421V469.157H365.388C364.239 471.606 362.612 474.036 360.507 476.447C358.44 478.82 355.742 480.79 352.411 482.359C349.12 483.928 345.1 484.713 340.354 484.713ZM348.105 465.253C352.048 465.253 355.378 464.182 358.096 462.039C360.852 459.857 362.957 456.815 364.411 452.912C365.904 449.008 366.651 444.435 366.651 439.192C366.651 433.949 365.923 429.395 364.469 425.53C363.014 421.665 360.909 418.68 358.153 416.575C355.397 414.471 352.048 413.418 348.105 413.418C344.086 413.418 340.699 414.509 337.943 416.69C335.187 418.872 333.1 421.895 331.684 425.76C330.268 429.625 329.56 434.103 329.56 439.192C329.56 444.32 330.268 448.855 331.684 452.797C333.139 456.7 335.225 459.762 337.943 461.981C340.699 464.163 344.086 465.253 348.105 465.253Z" stroke="#262626" stroke-width="10" mask="url(#path-2-outside-1_1_36)"/>
<path d="M435.105 365.716V483.278H410.646V365.716H435.105Z" stroke="#262626" stroke-width="10" mask="url(#path-2-outside-1_1_36)"/>
<path d="M454.699 483.278V395.107H479.158V483.278H454.699ZM466.986 383.741C463.349 383.741 460.23 382.535 457.627 380.124C455.062 377.675 453.78 374.748 453.78 371.342C453.78 367.974 455.062 365.085 457.627 362.674C460.23 360.225 463.349 359 466.986 359C470.622 359 473.723 360.225 476.287 362.674C478.89 365.085 480.191 367.974 480.191 371.342C480.191 374.748 478.89 377.675 476.287 380.124C473.723 382.535 470.622 383.741 466.986 383.741Z" stroke="#262626" stroke-width="10" mask="url(#path-2-outside-1_1_36)"/>
<path d="M523.211 432.304V483.278H498.751V395.107H522.062V410.663H523.096C525.048 405.535 528.321 401.478 532.914 398.493C537.507 395.47 543.077 393.959 549.622 393.959C555.746 393.959 561.086 395.298 565.641 397.977C570.196 400.656 573.737 404.482 576.263 409.457C578.789 414.394 580.053 420.287 580.053 427.138V483.278H555.593V431.5C555.632 426.104 554.254 421.895 551.459 418.872C548.665 415.81 544.818 414.279 539.919 414.279C536.627 414.279 533.718 414.987 531.191 416.403C528.703 417.819 526.751 419.886 525.335 422.603C523.957 425.282 523.249 428.515 523.211 432.304Z" stroke="#262626" stroke-width="10" mask="url(#path-2-outside-1_1_36)"/>
<path d="M639.522 485C630.45 485 622.641 483.163 616.096 479.489C609.589 475.777 604.574 470.534 601.053 463.761C597.531 456.949 595.77 448.893 595.77 439.594C595.77 430.524 597.531 422.564 601.053 415.714C604.574 408.864 609.531 403.526 615.923 399.699C622.354 395.872 629.895 393.959 638.545 393.959C644.364 393.959 649.78 394.896 654.794 396.771C659.847 398.608 664.249 401.383 668 405.095C671.789 408.807 674.737 413.476 676.842 419.101C678.947 424.688 680 431.232 680 438.733V445.449H605.531V430.295H656.976C656.976 426.774 656.211 423.655 654.679 420.938C653.148 418.221 651.024 416.097 648.306 414.566C645.627 412.997 642.507 412.213 638.947 412.213C635.234 412.213 631.943 413.074 629.072 414.796C626.239 416.48 624.019 418.757 622.411 421.627C620.804 424.459 619.981 427.616 619.943 431.098V445.507C619.943 449.869 620.746 453.639 622.354 456.815C624 459.991 626.316 462.441 629.301 464.163C632.287 465.885 635.828 466.746 639.923 466.746C642.641 466.746 645.129 466.363 647.388 465.598C649.646 464.832 651.579 463.684 653.187 462.154C654.794 460.623 656.019 458.748 656.861 456.528L679.483 458.021C678.335 463.455 675.981 468.2 672.421 472.256C668.9 476.275 664.344 479.413 658.756 481.671C653.206 483.89 646.794 485 639.522 485Z" stroke="#262626" stroke-width="10" mask="url(#path-2-outside-1_1_36)"/>
</svg>
